<?xml version="1.0" standalone="no"?>
<!DOCTYPE svg PUBLIC "-//W3C//DTD SVG 20010904//EN"
 "http://www.w3.org/TR/2001/REC-SVG-20010904/DTD/svg10.dtd">
<svg version="1.0" xmlns="http://www.w3.org/2000/svg"
 width="768.000000pt" height="768.000000pt" viewBox="0 0 768.000000 768.000000"
 preserveAspectRatio="xMidYMid meet">
<metadata>
Created by potrace 1.11, written by Peter Selinger 2001-2013
</metadata>
<g transform="translate(0.000000,768.000000) scale(0.100000,-0.100000)"
fill="#000000" stroke="none">
<path d="M3580 7250 c-682 -45 -1322 -292 -1855 -716 -141 -113 -396 -368
-509 -509 -389 -489 -627 -1062 -702 -1690 -22 -189 -22 -561 0 -750 75 -628
312 -1199 702 -1690 108 -136 594 -623 729 -731 452 -360 1013 -605 1570 -688
279 -42 662 -46 925 -11 634 84 1218 341 1700 746 560 471 949 1121 1099 1835
80 380 93 803 35 1189 -83 557 -328 1118 -688 1570 -108 135 -595 621 -731
729 -490 389 -1076 633 -1685 700 -175 19 -432 26 -590 16z m655 -248 c825
-128 1528 -546 2015 -1197 311 -415 498 -866 583 -1405 18 -116 21 -178 21
-440 0 -330 -9 -428 -69 -695 -154 -691 -573 -1333 -1150 -1765 -415 -311
-866 -498 -1405 -583 -116 -18 -178 -21 -440 -21 -262 0 -324 3 -440 21 -539
85 -990 272 -1405 583 -651 487 -1070 1193 -1197 2015 -26 170 -36 553 -18
733 131 1372 1138 2477 2490 2733 210 40 329 48 615 44 208 -2 300 -8 400 -23z"/>
<path d="M3080 5164 c-278 -63 -538 -199 -736 -387 -186 -176 -315 -374 -393
-605 -72 -213 -97 -393 -87 -637 13 -341 107 -587 284 -746 128 -116 383 -190
597 -175 472 33 780 354 778 811 -2 291 -104 514 -293 640 -228 151 -546 164
-779 32 -83 -47 -179 -144 -217 -219 -26 -51 -33 -55 -52 -36 -18 18 -14 80
14 207 91 410 330 721 688 896 72 36 174 76 226 91 52 14 101 28 109 30 8 3
10 11 6 22 -4 9 -9 34 -12 54 -3 20 -11 39 -17 41 -6 2 -58 -6 -116 -19z
m-196 -1173 c162 -57 278 -197 320 -388 22 -97 22 -347 0 -440 -33 -145 -115
-268 -217 -327 -86 -50 -164 -69 -282 -70 -163 -1 -277 43 -375 143 -111 114
-150 222 -157 437 -8 208 7 301 63 414 67 133 160 209 302 245 84 21 269 14
346 -14z"/>
<path d="M4698 5175 c-282 -48 -513 -231 -613 -486 -43 -108 -58 -210 -52
-349 19 -456 282 -720 718 -720 199 0 333 49 462 170 34 32 78 85 97 119 31
54 60 79 60 51 0 -5 7 -10 16 -10 10 0 14 -6 11 -14 -3 -8 -13 -59 -22 -113
-72 -422 -332 -784 -692 -962 -86 -43 -218 -91 -301 -111 l-54 -12 7 -37 c10
-54 35 -108 43 -94 4 6 50 21 102 33 263 62 504 184 703 357 222 194 389 479
462 788 38 163 48 277 42 488 -4 162 -9 207 -30 288 -60 230 -133 355 -275
468 -166 133 -428 189 -684 146z m268 -145 c80 -15 125 -33 195 -81 101 -68
168 -171 205 -314 26 -101 26 -372 0 -470 -58 -219 -199 -349 -410 -377 -273
-37 -503 95 -585 334 -30 88 -45 225 -38 356 11 201 49 310 143 411 114 123
295 175 490 141z"/>
</g>
</svg>
